<svg xmlns="http://www.w3.org/2000/svg" viewBox="0 0 64 64" id="medal">
  <circle cx="32" cy="26.5" r="19.5" fill="#fccd1d"></circle>
  <circle cx="32" cy="26.5" r="14.5" fill="#f9a215"></circle>
  <path fill="#fccd1d" d="m33.37 19 1.52 2.63a1.54 1.54 0 0 0 1.06.76L39 23a1.53 1.53 0 0 1 .85 2.56l-2.1 2.22a1.5 1.5 0 0 0-.4 1.22l.36 3a1.57 1.57 0 0 1-2.22 1.58l-2.81-1.27a1.6 1.6 0 0 0-1.32 0l-2.81 1.27A1.57 1.57 0 0 1 26.31 32l.36-3a1.5 1.5 0 0 0-.4-1.22l-2.1-2.22A1.53 1.53 0 0 1 25 23l3-.59a1.54 1.54 0 0 0 1.06-.76L30.63 19a1.59 1.59 0 0 1 2.74 0Z"></path>
  <path fill="#212529" d="M45 43v14h16l-6-7 6-7H45zM19 43v14H3l6-7-6-7h16z"></path>
  <path fill="#dd051d" d="M13 39h38v14H13z"></path>
  <path fill="#a60416" d="m13 53 6 4v-4h-6zM51 53l-6 4v-4h6z"></path>
</svg>
