<?xml version="1.0" standalone="no"?>
<!DOCTYPE svg PUBLIC "-//W3C//DTD SVG 20010904//EN"
 "http://www.w3.org/TR/2001/REC-SVG-20010904/DTD/svg10.dtd">
<svg version="1.0" xmlns="http://www.w3.org/2000/svg"
 width="523.000000pt" height="599.000000pt" viewBox="0 0 523.000000 599.000000"
 preserveAspectRatio="xMidYMid meet">
<metadata>
Created by potrace 1.16, written by Peter Selinger 2001-2019
</metadata>
<g transform="translate(0.000000,599.000000) scale(0.100000,-0.100000)"
fill="#000000" stroke="none">
<path d="M2083 5845 c-238 -65 -578 -339 -724 -585 -31 -52 -98 -167 -149
-255 -138 -239 -193 -310 -389 -505 l-177 -175 -144 -75 c-81 -42 -162 -93
-187 -116 -40 -38 -43 -44 -43 -93 0 -70 12 -93 135 -251 90 -115 120 -163
200 -326 52 -105 95 -195 95 -200 0 -6 -27 -46 -61 -89 -253 -330 -486 -911
-530 -1320 -14 -135 -6 -414 16 -539 48 -272 168 -479 432 -743 165 -166 240
-221 374 -276 223 -92 588 -139 825 -106 182 25 403 117 551 228 131 99 334
320 450 492 31 44 34 46 110 61 303 60 656 354 861 718 17 30 71 147 120 260
236 542 447 978 540 1120 97 150 334 403 537 575 169 143 208 194 208 272 0
53 -22 87 -76 114 -78 40 -195 129 -371 284 -72 64 -150 165 -235 307 -87 145
-130 249 -171 411 -47 187 -94 320 -162 457 -87 175 -185 253 -379 300 -101
24 -184 25 -287 4 -192 -39 -396 -154 -578 -327 l-71 -67 -32 99 c-62 196
-164 301 -338 346 -73 19 -279 19 -350 0z m352 -168 c95 -48 178 -159 178
-238 0 -73 -78 -153 -172 -179 -41 -11 -47 -9 -152 40 -139 66 -162 69 -273
34 -81 -25 -92 -26 -115 -13 -16 9 -27 25 -29 42 -9 76 121 242 232 297 115
57 241 63 331 17z m1337 -84 c65 -29 134 -96 154 -148 25 -67 13 -107 -50
-171 -86 -86 -150 -85 -266 6 -37 28 -76 50 -90 50 -14 0 -61 -12 -105 -26
-95 -32 -117 -29 -168 22 -44 45 -46 68 -9 122 48 72 131 126 242 158 70 20
234 13 292 -13z m-1764 -848 c86 -21 139 -50 269 -149 111 -84 178 -116 243
-116 51 0 184 40 309 94 190 81 285 106 395 106 138 -1 312 -70 407 -162 30
-29 94 -108 143 -175 93 -130 114 -154 191 -221 l50 -44 -30 -25 c-79 -66
-229 -93 -319 -59 -51 19 -114 83 -147 148 -12 23 -23 44 -24 46 -1 1 -30 -24
-63 -57 -132 -129 -362 -191 -537 -146 -110 29 -198 105 -241 209 l-18 44 -55
-45 c-65 -53 -146 -95 -216 -112 -60 -15 -194 -16 -259 -1 -122 27 -229 121
-265 232 l-12 38 -37 -16 c-23 -11 -65 -16 -112 -16 -136 0 -246 62 -289 163
-12 28 -20 57 -17 64 2 7 44 35 93 63 130 75 248 123 358 146 44 9 123 5 183
-9z m-244 -1150 c9 -24 -11 -64 -68 -135 -238 -295 -469 -680 -614 -1020 -87
-204 -162 -456 -196 -652 -22 -130 -49 -168 -129 -183 -89 -17 -148 58 -155
200 -8 158 51 450 129 633 213 503 552 921 916 1128 83 47 107 53 117 29z
m1697 -75 c10 -6 19 -21 19 -34 0 -26 -8 -39 -182 -286 -154 -219 -256 -385
-346 -557 -91 -177 -109 -226 -232 -637 -168 -563 -232 -737 -320 -866 -54
-80 -125 -157 -162 -176 -83 -43 -215 20 -254 122 -34 90 -1 188 139 412 42
66 87 142 100 169 34 67 162 358 208 473 34 86 82 193 224 495 120 258 194
372 366 571 215 248 364 354 440 314z"/>
</g>
</svg>
